# Blender v2.79 (sub 0) OBJ File: ''
# www.blender.org
mtllib Floor.mtl
o Floor
v -1.000000 0.050000 1.000000
v -1.000000 0.000000 -1.000000
v -1.000000 -0.000000 1.000000
v -1.000000 0.050000 -1.000000
v -1.000000 0.100000 1.000000
v -1.000000 0.100000 -1.000000
v -0.850000 0.100000 0.850000
v -0.850000 0.050000 -0.850000
v -0.850000 0.050000 0.850000
v -0.850000 0.100000 -0.850000
v -0.400000 0.100000 0.400000
v -0.400000 0.050000 -0.400000
v -0.400000 0.050000 0.400000
v -0.400000 0.100000 -0.400000
v 0.500000 0.100000 0.500000
v 0.500000 0.050000 -0.500000
v 0.500000 0.050000 0.500000
v 0.500000 0.100000 -0.500000
v 0.950000 0.100000 0.950000
v 0.950000 0.050000 -0.950000
v 0.950000 0.050000 0.950000
v 0.950000 0.100000 -0.950000
v -0.950000 0.050000 0.950000
v -0.950000 0.050000 -0.950000
v -0.950000 0.100000 0.950000
v -0.950000 0.100000 -0.950000
v -0.500000 0.050000 0.500000
v -0.500000 0.050000 -0.500000
v -0.500000 0.100000 0.500000
v -0.500000 0.100000 -0.500000
v 0.400000 0.050000 0.400000
v 0.400000 0.050000 -0.400000
v 0.400000 0.100000 0.400000
v 0.400000 0.100000 -0.400000
v 0.850000 0.050000 0.850000
v 0.850000 0.050000 -0.850000
v 0.850000 0.100000 0.850000
v 0.850000 0.100000 -0.850000
v 1.000000 -0.000000 1.000000
v 1.000000 0.000000 -1.000000
v 1.000000 0.050000 1.000000
v 1.000000 0.050000 -1.000000
v 1.000000 0.100000 1.000000
v 1.000000 0.100000 -1.000000
v 1.000000 -0.000000 1.000000
v -1.000000 0.050000 1.000000
v -1.000000 -0.000000 1.000000
v 1.000000 0.050000 1.000000
v -1.000000 0.100000 1.000000
v 1.000000 0.100000 1.000000
v 0.850000 0.050000 0.850000
v -0.850000 0.100000 0.850000
v -0.850000 0.050000 0.850000
v 0.850000 0.100000 0.850000
v 0.400000 0.050000 0.400000
v -0.400000 0.100000 0.400000
v -0.400000 0.050000 0.400000
v 0.400000 0.100000 0.400000
v 0.500000 0.050000 -0.500000
v -0.500000 0.100000 -0.500000
v -0.500000 0.050000 -0.500000
v 0.500000 0.100000 -0.500000
v 0.950000 0.050000 -0.950000
v -0.950000 0.100000 -0.950000
v -0.950000 0.050000 -0.950000
v 0.950000 0.100000 -0.950000
v -0.950000 0.050000 0.950000
v -0.950000 0.100000 0.950000
v 0.950000 0.050000 0.950000
v 0.950000 0.100000 0.950000
v -0.500000 0.050000 0.500000
v -0.500000 0.100000 0.500000
v 0.500000 0.050000 0.500000
v 0.500000 0.100000 0.500000
v -0.400000 0.050000 -0.400000
v -0.400000 0.100000 -0.400000
v 0.400000 0.050000 -0.400000
v 0.400000 0.100000 -0.400000
v -0.850000 0.050000 -0.850000
v -0.850000 0.100000 -0.850000
v 0.850000 0.050000 -0.850000
v 0.850000 0.100000 -0.850000
v -1.000000 0.000000 -1.000000
v -1.000000 0.050000 -1.000000
v 1.000000 0.000000 -1.000000
v -1.000000 0.100000 -1.000000
v 1.000000 0.050000 -1.000000
v 1.000000 0.100000 -1.000000
v -0.950000 -0.000000 0.950000
v 1.000000 -0.000000 1.000000
v -1.000000 -0.000000 1.000000
v 0.950000 -0.000000 0.950000
v -0.850000 -0.000000 0.850000
v 0.850000 -0.000000 0.850000
v -0.500000 -0.000000 0.500000
v 0.500000 -0.000000 0.500000
v -0.400000 -0.000000 0.400000
v 0.400000 -0.000000 0.400000
v -0.400000 0.000000 -0.400000
v 0.400000 0.000000 -0.400000
v -0.500000 0.000000 -0.500000
v 0.500000 0.000000 -0.500000
v -0.850000 0.000000 -0.850000
v 0.850000 0.000000 -0.850000
v -0.950000 0.000000 -0.950000
v 0.950000 0.000000 -0.950000
v -1.000000 0.000000 -1.000000
v 1.000000 0.000000 -1.000000
v -1.000000 0.100000 1.000000
v 1.000000 0.100000 1.000000
v -0.950000 0.100000 0.950000
v 0.950000 0.100000 0.950000
v -0.850000 0.100000 0.850000
v 0.850000 0.100000 0.850000
v -0.500000 0.100000 0.500000
v 0.500000 0.100000 0.500000
v -0.400000 0.100000 0.400000
v 0.400000 0.100000 0.400000
v -0.400000 0.100000 -0.400000
v 0.400000 0.100000 -0.400000
v -0.500000 0.100000 -0.500000
v 0.500000 0.100000 -0.500000
v -0.850000 0.100000 -0.850000
v 0.850000 0.100000 -0.850000
v -0.950000 0.100000 -0.950000
v 0.950000 0.100000 -0.950000
v -1.000000 0.100000 -1.000000
v 1.000000 0.100000 -1.000000
v -0.950000 0.050000 0.950000
v 0.950000 0.050000 0.950000
v -0.850000 0.050000 0.850000
v 0.850000 0.050000 0.850000
v -0.500000 0.050000 0.500000
v 0.500000 0.050000 0.500000
v -0.400000 0.050000 0.400000
v 0.400000 0.050000 0.400000
v -0.400000 0.050000 -0.400000
v 0.400000 0.050000 -0.400000
v -0.500000 0.050000 -0.500000
v 0.500000 0.050000 -0.500000
v -0.850000 0.050000 -0.850000
v 0.850000 0.050000 -0.850000
v -0.950000 0.050000 -0.950000
v 0.950000 0.050000 -0.950000
vt 0.876953 0.500000
vt 0.876953 0.500000
vt 0.876953 0.500000
vt 0.876953 0.500000
vt 0.955078 0.500000
vt 0.955078 0.500000
vt 0.955078 0.500000
vt 0.955078 0.500000
vt 0.955078 0.500000
vt 0.955078 0.500000
vt 0.955078 0.500000
vt 0.955078 0.500000
vt 0.876953 0.500000
vt 0.876953 0.500000
vt 0.876953 0.500000
vt 0.876953 0.500000
vt 0.955078 0.500000
vt 0.955078 0.500000
vt 0.955078 0.500000
vt 0.955078 0.500000
vt 0.955078 0.500000
vt 0.955078 0.500000
vt 0.955078 0.500000
vt 0.955078 0.500000
vt 0.955078 0.500000
vt 0.955078 0.500000
vt 0.955078 0.500000
vt 0.955078 0.500000
vt 0.955078 0.500000
vt 0.955078 0.500000
vt 0.955078 0.500000
vt 0.955078 0.500000
vt 0.876953 0.500000
vt 0.876953 0.500000
vt 0.876953 0.500000
vt 0.876953 0.500000
vt 0.955078 0.500000
vt 0.955078 0.500000
vt 0.955078 0.500000
vt 0.955078 0.500000
vt 0.876953 0.500000
vt 0.876953 0.500000
vt 0.876953 0.500000
vt 0.876953 0.500000
vt 0.955078 0.500000
vt 0.955078 0.500000
vt 0.955078 0.500000
vt 0.955078 0.500000
vt 0.876953 0.500000
vt 0.876953 0.500000
vt 0.876953 0.500000
vt 0.955078 0.500000
vt 0.955078 0.500000
vt 0.955078 0.500000
vt 0.876953 0.500000
vt 0.955078 0.500000
vt 0.955078 0.500000
vt 0.955078 0.500000
vt 0.955078 0.500000
vt 0.955078 0.500000
vt 0.876953 0.500000
vt 0.876953 0.500000
vt 0.876953 0.500000
vt 0.876953 0.500000
vt 0.955078 0.500000
vt 0.955078 0.500000
vt 0.955078 0.500000
vt 0.955078 0.500000
vt 0.955078 0.500000
vt 0.955078 0.500000
vt 0.955078 0.500000
vt 0.955078 0.500000
vt 0.955078 0.500000
vt 0.955078 0.500000
vt 0.955078 0.500000
vt 0.955078 0.500000
vt 0.955078 0.500000
vt 0.955078 0.500000
vt 0.955078 0.500000
vt 0.955078 0.500000
vt 0.876953 0.500000
vt 0.876953 0.500000
vt 0.876953 0.500000
vt 0.876953 0.500000
vt 0.955078 0.500000
vt 0.955078 0.500000
vt 0.955078 0.500000
vt 0.955078 0.500000
vt 0.876953 0.500000
vt 0.876953 0.500000
vt 0.876953 0.500000
vt 0.955078 0.500000
vt 0.955078 0.500000
vt 0.955078 0.500000
vt 0.876953 0.500000
vt 0.955078 0.500000
vt 0.876953 0.500000
vt 0.876953 0.500000
vt 0.876953 0.500000
vt 0.876953 0.500000
vt 0.259766 0.500000
vt 0.259766 0.500000
vt 0.259766 0.500000
vt 0.259766 0.500000
vt 0.876953 0.500000
vt 0.876953 0.500000
vt 0.876953 0.500000
vt 0.876953 0.500000
vt 0.259766 0.500000
vt 0.259766 0.500000
vt 0.259766 0.500000
vt 0.259766 0.500000
vt 0.259766 0.500000
vt 0.876953 0.500000
vt 0.876953 0.500000
vt 0.876953 0.500000
vt 0.259766 0.500000
vt 0.876953 0.500000
vt 0.876953 0.500000
vt 0.259766 0.500000
vt 0.259766 0.500000
vt 0.876953 0.500000
vt 0.259766 0.500000
vt 0.876953 0.500000
vt 0.876953 0.500000
vt 0.259766 0.500000
vt 0.876953 0.500000
vt 0.259766 0.500000
vt 0.259766 0.500000
vt 0.876953 0.500000
vt 0.876953 0.500000
vt 0.876953 0.500000
vt 0.955078 0.500000
vt 0.955078 0.500000
vt 0.955078 0.500000
vt 0.955078 0.500000
vt 0.955078 0.500000
vt 0.955078 0.500000
vt 0.955078 0.500000
vt 0.955078 0.500000
vt 0.876953 0.500000
vt 0.876953 0.500000
vt 0.876953 0.500000
vt 0.876953 0.500000
vt 0.955078 0.500000
vt 0.955078 0.500000
vt 0.955078 0.500000
vt 0.955078 0.500000
vt 0.955078 0.500000
vt 0.955078 0.500000
vt 0.955078 0.500000
vt 0.955078 0.500000
vt 0.259766 0.500000
vt 0.259766 0.500000
vt 0.259766 0.500000
vt 0.259766 0.500000
vt 0.259766 0.500000
vt 0.259766 0.500000
vt 0.259766 0.500000
vt 0.259766 0.500000
vt 0.259766 0.500000
vt 0.259766 0.500000
vt 0.259766 0.500000
vt 0.259766 0.500000
vt 0.259766 0.500000
vt 0.259766 0.500000
vt 0.259766 0.500000
vt 0.259766 0.500000
vn -1.0000 0.0000 0.0000
vn 1.0000 0.0000 0.0000
vn 0.0000 0.0000 1.0000
vn 0.0000 0.0000 -1.0000
vn -0.0000 -1.0000 -0.0000
vn 0.0000 1.0000 0.0000
usemtl palette
s 1
f 1/1/1 2/2/1 3/3/1
f 4/4/1 2/2/1 1/1/1
f 5/5/1 4/6/1 1/7/1
f 6/8/1 4/6/1 5/5/1
f 7/9/1 8/10/1 9/11/1
f 10/12/1 8/10/1 7/9/1
f 11/13/1 12/14/1 13/15/1
f 14/16/1 12/14/1 11/13/1
f 15/17/1 16/18/1 17/19/1
f 18/20/1 16/18/1 15/17/1
f 19/21/1 20/22/1 21/23/1
f 22/24/1 20/22/1 19/21/1
f 23/25/2 24/26/2 25/27/2
f 25/27/2 24/26/2 26/28/2
f 27/29/2 28/30/2 29/31/2
f 29/31/2 28/30/2 30/32/2
f 31/33/2 32/34/2 33/35/2
f 33/35/2 32/34/2 34/36/2
f 35/37/2 36/38/2 37/39/2
f 37/39/2 36/38/2 38/40/2
f 39/41/2 40/42/2 41/43/2
f 41/43/2 40/42/2 42/44/2
f 41/45/2 42/46/2 43/47/2
f 43/47/2 42/46/2 44/48/2
f 45/49/3 46/50/3 47/51/3
f 48/52/3 49/53/3 46/54/3
f 48/55/3 46/50/3 45/49/3
f 50/56/3 49/53/3 48/52/3
f 51/57/3 52/58/3 53/59/3
f 54/60/3 52/58/3 51/57/3
f 55/61/3 56/62/3 57/63/3
f 58/64/3 56/62/3 55/61/3
f 59/65/3 60/66/3 61/67/3
f 62/68/3 60/66/3 59/65/3
f 63/69/3 64/70/3 65/71/3
f 66/72/3 64/70/3 63/69/3
f 67/73/4 68/74/4 69/75/4
f 69/75/4 68/74/4 70/76/4
f 71/77/4 72/78/4 73/79/4
f 73/79/4 72/78/4 74/80/4
f 75/81/4 76/82/4 77/83/4
f 77/83/4 76/82/4 78/84/4
f 79/85/4 80/86/4 81/87/4
f 81/87/4 80/86/4 82/88/4
f 83/89/4 84/90/4 85/91/4
f 84/92/4 86/93/4 87/94/4
f 85/91/4 84/90/4 87/95/4
f 87/94/4 86/93/4 88/96/4
f 89/97/5 90/98/5 91/99/5
f 92/100/5 90/98/5 89/97/5
f 93/101/5 92/102/5 89/103/5
f 94/104/5 92/102/5 93/101/5
f 95/105/5 94/106/5 93/107/5
f 96/108/5 94/106/5 95/105/5
f 97/109/5 96/110/5 95/111/5
f 98/112/5 96/110/5 97/109/5
f 99/113/5 97/109/5 95/111/5
f 99/114/5 98/115/5 97/116/5
f 100/117/5 96/110/5 98/112/5
f 100/118/5 98/115/5 99/114/5
f 101/119/5 95/105/5 93/107/5
f 101/120/5 99/113/5 95/111/5
f 101/120/5 100/117/5 99/113/5
f 102/121/5 96/110/5 100/117/5
f 102/121/5 100/117/5 101/120/5
f 102/122/5 94/106/5 96/108/5
f 103/123/5 93/101/5 89/103/5
f 103/124/5 101/119/5 93/107/5
f 103/124/5 102/122/5 101/119/5
f 104/125/5 94/106/5 102/122/5
f 104/125/5 102/122/5 103/124/5
f 104/126/5 92/102/5 94/104/5
f 105/127/5 89/97/5 91/99/5
f 105/128/5 103/123/5 89/103/5
f 105/128/5 104/126/5 103/123/5
f 106/129/5 92/102/5 104/126/5
f 106/129/5 104/126/5 105/128/5
f 106/130/5 90/98/5 92/100/5
f 107/131/5 105/127/5 91/99/5
f 107/131/5 106/130/5 105/127/5
f 108/132/5 90/98/5 106/130/5
f 108/132/5 106/130/5 107/131/5
f 109/133/6 110/134/6 111/135/6
f 111/135/6 110/134/6 112/136/6
f 113/137/6 114/138/6 115/139/6
f 115/139/6 114/138/6 116/140/6
f 117/141/6 118/142/6 119/143/6
f 119/143/6 118/142/6 120/144/6
f 113/137/6 115/139/6 121/145/6
f 116/140/6 114/138/6 122/146/6
f 113/137/6 121/145/6 123/147/6
f 121/145/6 122/146/6 123/147/6
f 122/146/6 114/138/6 124/148/6
f 123/147/6 122/146/6 124/148/6
f 109/133/6 111/135/6 125/149/6
f 112/136/6 110/134/6 126/150/6
f 109/133/6 125/149/6 127/151/6
f 125/149/6 126/150/6 127/151/6
f 126/150/6 110/134/6 128/152/6
f 127/151/6 126/150/6 128/152/6
usemtl palette_2
f 129/153/6 130/154/6 131/155/6
f 131/155/6 130/154/6 132/156/6
f 133/157/6 134/158/6 135/159/6
f 135/159/6 134/158/6 136/160/6
f 133/157/6 135/159/6 137/161/6
f 136/160/6 134/158/6 138/162/6
f 133/157/6 137/161/6 139/163/6
f 137/161/6 138/162/6 139/163/6
f 138/162/6 134/158/6 140/164/6
f 139/163/6 138/162/6 140/164/6
f 129/153/6 131/155/6 141/165/6
f 132/156/6 130/154/6 142/166/6
f 129/153/6 141/165/6 143/167/6
f 141/165/6 142/166/6 143/167/6
f 142/166/6 130/154/6 144/168/6
f 143/167/6 142/166/6 144/168/6
