# MagicaVoxel @ Ephtracy

# group
g Health

# material
mtllib Health.mtl
usemtl palette

# normals
vn -1 0 0
vn 1 0 0
vn 0 0 1
vn 0 0 -1
vn 0 -1 0
vn 0 1 0

# texcoords
vt 0.927734 0.5
vt 0.958984 0.5
vt 0.962891 0.5

# verts
v -12 10 7
v -12 10 6
v -12 10 -6
v -12 10 -7
v -12 16 7
v -12 16 6
v -12 16 -6
v -12 16 -7
v -3 0 7
v -3 0 6
v -3 0 -6
v -3 0 -7
v -3 10 7
v -3 10 6
v -3 10 -6
v -3 10 -7
v -3 16 7
v -3 16 6
v -3 16 -6
v -3 16 -7
v -3 25 7
v -3 25 6
v -3 25 -6
v -3 25 -7
v 3 0 7
v 3 0 6
v 3 0 -6
v 3 0 -7
v 3 10 7
v 3 10 6
v 3 10 -6
v 3 10 -7
v 3 16 7
v 3 16 6
v 3 16 -6
v 3 16 -7
v 3 25 7
v 3 25 6
v 3 25 -6
v 3 25 -7
v 12 10 7
v 12 10 6
v 12 10 -6
v 12 10 -7
v 12 16 7
v 12 16 6
v 12 16 -6
v 12 16 -7
v -12 10 7
v -12 16 7
v -11 11 7
v -11 15 7
v -3 0 7
v -3 10 7
v -3 16 7
v -3 25 7
v -2 1 7
v -2 11 7
v -2 15 7
v -2 24 7
v 2 1 7
v 2 11 7
v 2 15 7
v 2 24 7
v 3 0 7
v 3 10 7
v 3 16 7
v 3 25 7
v 11 11 7
v 11 15 7
v 12 10 7
v 12 16 7
v -12 10 -7
v -12 16 -7
v -11 11 -7
v -11 15 -7
v -3 0 -7
v -3 10 -7
v -3 16 -7
v -3 25 -7
v -2 1 -7
v -2 11 -7
v -2 15 -7
v -2 24 -7
v 2 1 -7
v 2 11 -7
v 2 15 -7
v 2 24 -7
v 3 0 -7
v 3 10 -7
v 3 16 -7
v 3 25 -7
v 11 11 -7
v 11 15 -7
v 12 10 -7
v 12 16 -7
v -3 0 7
v 3 0 7
v -3 0 6
v 3 0 6
v -3 0 -6
v 3 0 -6
v -3 0 -7
v 3 0 -7
v -12 10 7
v -3 10 7
v 3 10 7
v 12 10 7
v -12 10 6
v -3 10 6
v 3 10 6
v 12 10 6
v -12 10 -6
v -3 10 -6
v 3 10 -6
v 12 10 -6
v -12 10 -7
v -3 10 -7
v 3 10 -7
v 12 10 -7
v -12 16 7
v -3 16 7
v 3 16 7
v 12 16 7
v -12 16 6
v -3 16 6
v 3 16 6
v 12 16 6
v -12 16 -6
v -3 16 -6
v 3 16 -6
v 12 16 -6
v -12 16 -7
v -3 16 -7
v 3 16 -7
v 12 16 -7
v -3 25 7
v 3 25 7
v -3 25 6
v 3 25 6
v -3 25 -6
v 3 25 -6
v -3 25 -7
v 3 25 -7

# faces
f 5/3/1 2/3/1 1/3/1
f 6/2/1 3/2/1 2/2/1
f 6/3/1 2/3/1 5/3/1
f 7/3/1 4/3/1 3/3/1
f 7/2/1 3/2/1 6/2/1
f 8/3/1 4/3/1 7/3/1
f 13/3/1 10/3/1 9/3/1
f 14/2/1 11/2/1 10/2/1
f 14/3/1 10/3/1 13/3/1
f 15/3/1 12/3/1 11/3/1
f 15/2/1 11/2/1 14/2/1
f 16/3/1 12/3/1 15/3/1
f 21/3/1 18/3/1 17/3/1
f 22/2/1 19/2/1 18/2/1
f 22/3/1 18/3/1 21/3/1
f 23/3/1 20/3/1 19/3/1
f 23/2/1 19/2/1 22/2/1
f 24/3/1 20/3/1 23/3/1
f 25/3/2 26/3/2 29/3/2
f 26/2/2 27/2/2 30/2/2
f 29/3/2 26/3/2 30/3/2
f 27/3/2 28/3/2 31/3/2
f 30/2/2 27/2/2 31/2/2
f 31/3/2 28/3/2 32/3/2
f 33/3/2 34/3/2 37/3/2
f 34/2/2 35/2/2 38/2/2
f 37/3/2 34/3/2 38/3/2
f 35/3/2 36/3/2 39/3/2
f 38/2/2 35/2/2 39/2/2
f 39/3/2 36/3/2 40/3/2
f 41/3/2 42/3/2 45/3/2
f 42/2/2 43/2/2 46/2/2
f 45/3/2 42/3/2 46/3/2
f 43/3/2 44/3/2 47/3/2
f 46/2/2 43/2/2 47/2/2
f 47/3/2 44/3/2 48/3/2
f 51/3/3 50/3/3 49/3/3
f 52/3/3 50/3/3 51/3/3
f 54/3/3 51/3/3 49/3/3
f 55/3/3 50/3/3 52/3/3
f 57/3/3 54/3/3 53/3/3
f 58/1/3 52/1/3 51/1/3
f 58/3/3 54/3/3 57/3/3
f 58/3/3 51/3/3 54/3/3
f 59/3/3 56/3/3 55/3/3
f 59/1/3 52/1/3 58/1/3
f 59/3/3 55/3/3 52/3/3
f 60/3/3 56/3/3 59/3/3
f 61/1/3 58/1/3 57/1/3
f 61/3/3 57/3/3 53/3/3
f 61/1/3 60/1/3 59/1/3
f 61/1/3 59/1/3 58/1/3
f 62/1/3 60/1/3 61/1/3
f 63/1/3 60/1/3 62/1/3
f 64/3/3 56/3/3 60/3/3
f 64/1/3 60/1/3 63/1/3
f 65/3/3 61/3/3 53/3/3
f 65/3/3 62/3/3 61/3/3
f 66/3/3 62/3/3 65/3/3
f 67/3/3 64/3/3 63/3/3
f 68/3/3 56/3/3 64/3/3
f 68/3/3 64/3/3 67/3/3
f 69/1/3 63/1/3 62/1/3
f 69/3/3 62/3/3 66/3/3
f 70/3/3 67/3/3 63/3/3
f 70/1/3 63/1/3 69/1/3
f 71/3/3 69/3/3 66/3/3
f 71/3/3 70/3/3 69/3/3
f 72/3/3 67/3/3 70/3/3
f 72/3/3 70/3/3 71/3/3
f 73/3/4 74/3/4 75/3/4
f 75/3/4 74/3/4 76/3/4
f 73/3/4 75/3/4 78/3/4
f 76/3/4 74/3/4 79/3/4
f 77/3/4 78/3/4 81/3/4
f 75/1/4 76/1/4 82/1/4
f 81/3/4 78/3/4 82/3/4
f 78/3/4 75/3/4 82/3/4
f 79/3/4 80/3/4 83/3/4
f 82/1/4 76/1/4 83/1/4
f 76/3/4 79/3/4 83/3/4
f 83/3/4 80/3/4 84/3/4
f 81/1/4 82/1/4 85/1/4
f 77/3/4 81/3/4 85/3/4
f 83/1/4 84/1/4 85/1/4
f 82/1/4 83/1/4 85/1/4
f 85/1/4 84/1/4 86/1/4
f 86/1/4 84/1/4 87/1/4
f 84/3/4 80/3/4 88/3/4
f 87/1/4 84/1/4 88/1/4
f 77/3/4 85/3/4 89/3/4
f 85/3/4 86/3/4 89/3/4
f 89/3/4 86/3/4 90/3/4
f 87/3/4 88/3/4 91/3/4
f 88/3/4 80/3/4 92/3/4
f 91/3/4 88/3/4 92/3/4
f 86/1/4 87/1/4 93/1/4
f 90/3/4 86/3/4 93/3/4
f 87/3/4 91/3/4 94/3/4
f 93/1/4 87/1/4 94/1/4
f 90/3/4 93/3/4 95/3/4
f 93/3/4 94/3/4 95/3/4
f 94/3/4 91/3/4 96/3/4
f 95/3/4 94/3/4 96/3/4
f 99/3/5 98/3/5 97/3/5
f 100/3/5 98/3/5 99/3/5
f 101/2/5 100/2/5 99/2/5
f 102/2/5 100/2/5 101/2/5
f 103/3/5 102/3/5 101/3/5
f 104/3/5 102/3/5 103/3/5
f 109/3/5 106/3/5 105/3/5
f 110/3/5 106/3/5 109/3/5
f 111/3/5 108/3/5 107/3/5
f 112/3/5 108/3/5 111/3/5
f 113/2/5 110/2/5 109/2/5
f 114/2/5 110/2/5 113/2/5
f 115/2/5 112/2/5 111/2/5
f 116/2/5 112/2/5 115/2/5
f 117/3/5 114/3/5 113/3/5
f 118/3/5 114/3/5 117/3/5
f 119/3/5 116/3/5 115/3/5
f 120/3/5 116/3/5 119/3/5
f 121/3/6 122/3/6 125/3/6
f 125/3/6 122/3/6 126/3/6
f 123/3/6 124/3/6 127/3/6
f 127/3/6 124/3/6 128/3/6
f 125/2/6 126/2/6 129/2/6
f 129/2/6 126/2/6 130/2/6
f 127/2/6 128/2/6 131/2/6
f 131/2/6 128/2/6 132/2/6
f 129/3/6 130/3/6 133/3/6
f 133/3/6 130/3/6 134/3/6
f 131/3/6 132/3/6 135/3/6
f 135/3/6 132/3/6 136/3/6
f 137/3/6 138/3/6 139/3/6
f 139/3/6 138/3/6 140/3/6
f 139/2/6 140/2/6 141/2/6
f 141/2/6 140/2/6 142/2/6
f 141/3/6 142/3/6 143/3/6
f 143/3/6 142/3/6 144/3/6
